<?xml version="1.0" encoding="UTF-8" ?>
<svg version="1.1" width="64" height="64" xmlns="http://www.w3.org/2000/svg" shape-rendering="crispEdges">
<rect x="28" y="6" width="2" height="2" fill="#FBBF24" />
<rect x="30" y="6" width="2" height="2" fill="#FBBF24" />
<rect x="32" y="6" width="2" height="2" fill="#FBBF24" />
<rect x="34" y="6" width="2" height="2" fill="#FBBF24" />
<rect x="28" y="8" width="2" height="2" fill="#FBBF24" />
<rect x="30" y="8" width="2" height="2" fill="#FBBF24" />
<rect x="32" y="8" width="2" height="2" fill="#FBBF24" />
<rect x="34" y="8" width="2" height="2" fill="#FBBF24" />
<rect x="28" y="10" width="2" height="2" fill="#FBBF24" />
<rect x="30" y="10" width="2" height="2" fill="#FBBF24" />
<rect x="32" y="10" width="2" height="2" fill="#FBBF24" />
<rect x="34" y="10" width="2" height="2" fill="#FBBF24" />
<rect x="28" y="12" width="2" height="2" fill="#FBBF24" />
<rect x="30" y="12" width="2" height="2" fill="#FBBF24" />
<rect x="32" y="12" width="2" height="2" fill="#FBBF24" />
<rect x="34" y="12" width="2" height="2" fill="#FBBF24" />
<rect x="6" y="14" width="2" height="2" fill="#FBBF24" />
<rect x="8" y="14" width="2" height="2" fill="#FBBF24" />
<rect x="10" y="14" width="2" height="2" fill="#FBBF24" />
<rect x="12" y="14" width="2" height="2" fill="#FBBF24" />
<rect x="28" y="14" width="2" height="2" fill="#FBBF24" />
<rect x="30" y="14" width="2" height="2" fill="#FBBF24" />
<rect x="32" y="14" width="2" height="2" fill="#FBBF24" />
<rect x="34" y="14" width="2" height="2" fill="#FBBF24" />
<rect x="6" y="16" width="2" height="2" fill="#FBBF24" />
<rect x="8" y="16" width="2" height="2" fill="#FBBF24" />
<rect x="10" y="16" width="2" height="2" fill="#FBBF24" />
<rect x="12" y="16" width="2" height="2" fill="#FBBF24" />
<rect x="28" y="16" width="2" height="2" fill="#FBBF24" />
<rect x="30" y="16" width="2" height="2" fill="#FBBF24" />
<rect x="32" y="16" width="2" height="2" fill="#FBBF24" />
<rect x="34" y="16" width="2" height="2" fill="#FBBF24" />
<rect x="6" y="18" width="2" height="2" fill="#FBBF24" />
<rect x="8" y="18" width="2" height="2" fill="#FBBF24" />
<rect x="10" y="18" width="2" height="2" fill="#FBBF24" />
<rect x="12" y="18" width="2" height="2" fill="#FBBF24" />
<rect x="28" y="18" width="2" height="2" fill="#FBBF24" />
<rect x="30" y="18" width="2" height="2" fill="#FBBF24" />
<rect x="32" y="18" width="2" height="2" fill="#FBBF24" />
<rect x="34" y="18" width="2" height="2" fill="#FBBF24" />
<rect x="24" y="20" width="2" height="2" fill="#C18B00" />
<rect x="26" y="20" width="2" height="2" fill="#C18B00" />
<rect x="28" y="20" width="2" height="2" fill="#C18B00" />
<rect x="30" y="20" width="2" height="2" fill="#C18B00" />
<rect x="32" y="20" width="2" height="2" fill="#C18B00" />
<rect x="34" y="20" width="2" height="2" fill="#C18B00" />
<rect x="36" y="20" width="2" height="2" fill="#C18B00" />
<rect x="38" y="20" width="2" height="2" fill="#C18B00" />
<rect x="24" y="22" width="2" height="2" fill="#C18B00" />
<rect x="26" y="22" width="2" height="2" fill="#C18B00" />
<rect x="28" y="22" width="2" height="2" fill="#C18B00" />
<rect x="30" y="22" width="2" height="2" fill="#C18B00" />
<rect x="32" y="22" width="2" height="2" fill="#C18B00" />
<rect x="34" y="22" width="2" height="2" fill="#C18B00" />
<rect x="36" y="22" width="2" height="2" fill="#C18B00" />
<rect x="38" y="22" width="2" height="2" fill="#C18B00" />
<rect x="24" y="24" width="2" height="2" fill="#C18B00" />
<rect x="26" y="24" width="2" height="2" fill="#C18B00" />
<rect x="28" y="24" width="2" height="2" fill="#C18B00" />
<rect x="30" y="24" width="2" height="2" fill="#C18B00" />
<rect x="32" y="24" width="2" height="2" fill="#C18B00" />
<rect x="34" y="24" width="2" height="2" fill="#C18B00" />
<rect x="36" y="24" width="2" height="2" fill="#C18B00" />
<rect x="38" y="24" width="2" height="2" fill="#C18B00" />
<rect x="24" y="26" width="2" height="2" fill="#C18B00" />
<rect x="26" y="26" width="2" height="2" fill="#C18B00" />
<rect x="28" y="26" width="2" height="2" fill="#C18B00" />
<rect x="30" y="26" width="2" height="2" fill="#C18B00" />
<rect x="32" y="26" width="2" height="2" fill="#C18B00" />
<rect x="34" y="26" width="2" height="2" fill="#C18B00" />
<rect x="36" y="26" width="2" height="2" fill="#C18B00" />
<rect x="38" y="26" width="2" height="2" fill="#C18B00" />
<rect x="50" y="26" width="2" height="2" fill="#ED793D" />
<rect x="52" y="26" width="2" height="2" fill="#ED793D" />
<rect x="54" y="26" width="2" height="2" fill="#ED793D" />
<rect x="56" y="26" width="2" height="2" fill="#ED793D" />
<rect x="24" y="28" width="2" height="2" fill="#C18B00" />
<rect x="26" y="28" width="2" height="2" fill="#C18B00" />
<rect x="28" y="28" width="2" height="2" fill="#C18B00" />
<rect x="30" y="28" width="2" height="2" fill="#C18B00" />
<rect x="32" y="28" width="2" height="2" fill="#C18B00" />
<rect x="34" y="28" width="2" height="2" fill="#C18B00" />
<rect x="36" y="28" width="2" height="2" fill="#C18B00" />
<rect x="38" y="28" width="2" height="2" fill="#C18B00" />
<rect x="50" y="28" width="2" height="2" fill="#ED793D" />
<rect x="52" y="28" width="2" height="2" fill="#ED793D" />
<rect x="54" y="28" width="2" height="2" fill="#ED793D" />
<rect x="56" y="28" width="2" height="2" fill="#ED793D" />
<rect x="24" y="30" width="2" height="2" fill="#C18B00" />
<rect x="26" y="30" width="2" height="2" fill="#C18B00" />
<rect x="28" y="30" width="2" height="2" fill="#C18B00" />
<rect x="30" y="30" width="2" height="2" fill="#C18B00" />
<rect x="32" y="30" width="2" height="2" fill="#C18B00" />
<rect x="34" y="30" width="2" height="2" fill="#C18B00" />
<rect x="36" y="30" width="2" height="2" fill="#C18B00" />
<rect x="38" y="30" width="2" height="2" fill="#C18B00" />
<rect x="50" y="30" width="2" height="2" fill="#ED793D" />
<rect x="52" y="30" width="2" height="2" fill="#ED793D" />
<rect x="54" y="30" width="2" height="2" fill="#ED793D" />
<rect x="56" y="30" width="2" height="2" fill="#ED793D" />
<rect x="24" y="32" width="2" height="2" fill="#C18B00" />
<rect x="26" y="32" width="2" height="2" fill="#C18B00" />
<rect x="28" y="32" width="2" height="2" fill="#C18B00" />
<rect x="30" y="32" width="2" height="2" fill="#C18B00" />
<rect x="32" y="32" width="2" height="2" fill="#C18B00" />
<rect x="34" y="32" width="2" height="2" fill="#C18B00" />
<rect x="36" y="32" width="2" height="2" fill="#C18B00" />
<rect x="38" y="32" width="2" height="2" fill="#C18B00" />
<rect x="50" y="32" width="2" height="2" fill="#ED793D" />
<rect x="52" y="32" width="2" height="2" fill="#ED793D" />
<rect x="54" y="32" width="2" height="2" fill="#ED793D" />
<rect x="56" y="32" width="2" height="2" fill="#ED793D" />
<rect x="20" y="34" width="2" height="2" fill="#C2410C" />
<rect x="22" y="34" width="2" height="2" fill="#C2410C" />
<rect x="24" y="34" width="2" height="2" fill="#C2410C" />
<rect x="26" y="34" width="2" height="2" fill="#C2410C" />
<rect x="28" y="34" width="2" height="2" fill="#C2410C" />
<rect x="30" y="34" width="2" height="2" fill="#C2410C" />
<rect x="32" y="34" width="2" height="2" fill="#C2410C" />
<rect x="34" y="34" width="2" height="2" fill="#C2410C" />
<rect x="36" y="34" width="2" height="2" fill="#C2410C" />
<rect x="38" y="34" width="2" height="2" fill="#C2410C" />
<rect x="40" y="34" width="2" height="2" fill="#C2410C" />
<rect x="42" y="34" width="2" height="2" fill="#C2410C" />
<rect x="20" y="36" width="2" height="2" fill="#C2410C" />
<rect x="22" y="36" width="2" height="2" fill="#C2410C" />
<rect x="24" y="36" width="2" height="2" fill="#C2410C" />
<rect x="26" y="36" width="2" height="2" fill="#C2410C" />
<rect x="28" y="36" width="2" height="2" fill="#C2410C" />
<rect x="30" y="36" width="2" height="2" fill="#C2410C" />
<rect x="32" y="36" width="2" height="2" fill="#C2410C" />
<rect x="34" y="36" width="2" height="2" fill="#C2410C" />
<rect x="36" y="36" width="2" height="2" fill="#C2410C" />
<rect x="38" y="36" width="2" height="2" fill="#C2410C" />
<rect x="40" y="36" width="2" height="2" fill="#C2410C" />
<rect x="42" y="36" width="2" height="2" fill="#C2410C" />
<rect x="20" y="38" width="2" height="2" fill="#C2410C" />
<rect x="22" y="38" width="2" height="2" fill="#C2410C" />
<rect x="24" y="38" width="2" height="2" fill="#C2410C" />
<rect x="26" y="38" width="2" height="2" fill="#C2410C" />
<rect x="28" y="38" width="2" height="2" fill="#C2410C" />
<rect x="30" y="38" width="2" height="2" fill="#C2410C" />
<rect x="32" y="38" width="2" height="2" fill="#C2410C" />
<rect x="34" y="38" width="2" height="2" fill="#C2410C" />
<rect x="36" y="38" width="2" height="2" fill="#C2410C" />
<rect x="38" y="38" width="2" height="2" fill="#C2410C" />
<rect x="40" y="38" width="2" height="2" fill="#C2410C" />
<rect x="42" y="38" width="2" height="2" fill="#C2410C" />
<rect x="20" y="40" width="2" height="2" fill="#C2410C" />
<rect x="22" y="40" width="2" height="2" fill="#C2410C" />
<rect x="24" y="40" width="2" height="2" fill="#C2410C" />
<rect x="26" y="40" width="2" height="2" fill="#C2410C" />
<rect x="28" y="40" width="2" height="2" fill="#C2410C" />
<rect x="30" y="40" width="2" height="2" fill="#C2410C" />
<rect x="32" y="40" width="2" height="2" fill="#C2410C" />
<rect x="34" y="40" width="2" height="2" fill="#C2410C" />
<rect x="36" y="40" width="2" height="2" fill="#C2410C" />
<rect x="38" y="40" width="2" height="2" fill="#C2410C" />
<rect x="40" y="40" width="2" height="2" fill="#C2410C" />
<rect x="42" y="40" width="2" height="2" fill="#C2410C" />
<rect x="20" y="42" width="2" height="2" fill="#C2410C" />
<rect x="22" y="42" width="2" height="2" fill="#C2410C" />
<rect x="24" y="42" width="2" height="2" fill="#C2410C" />
<rect x="26" y="42" width="2" height="2" fill="#C2410C" />
<rect x="28" y="42" width="2" height="2" fill="#C2410C" />
<rect x="30" y="42" width="2" height="2" fill="#C2410C" />
<rect x="32" y="42" width="2" height="2" fill="#C2410C" />
<rect x="34" y="42" width="2" height="2" fill="#C2410C" />
<rect x="36" y="42" width="2" height="2" fill="#C2410C" />
<rect x="38" y="42" width="2" height="2" fill="#C2410C" />
<rect x="40" y="42" width="2" height="2" fill="#C2410C" />
<rect x="42" y="42" width="2" height="2" fill="#C2410C" />
<rect x="20" y="44" width="2" height="2" fill="#C2410C" />
<rect x="22" y="44" width="2" height="2" fill="#C2410C" />
<rect x="24" y="44" width="2" height="2" fill="#C2410C" />
<rect x="26" y="44" width="2" height="2" fill="#C2410C" />
<rect x="28" y="44" width="2" height="2" fill="#C2410C" />
<rect x="30" y="44" width="2" height="2" fill="#C2410C" />
<rect x="32" y="44" width="2" height="2" fill="#C2410C" />
<rect x="34" y="44" width="2" height="2" fill="#C2410C" />
<rect x="36" y="44" width="2" height="2" fill="#C2410C" />
<rect x="38" y="44" width="2" height="2" fill="#C2410C" />
<rect x="40" y="44" width="2" height="2" fill="#C2410C" />
<rect x="42" y="44" width="2" height="2" fill="#C2410C" />
<rect x="20" y="46" width="2" height="2" fill="#C2410C" />
<rect x="22" y="46" width="2" height="2" fill="#C2410C" />
<rect x="24" y="46" width="2" height="2" fill="#C2410C" />
<rect x="26" y="46" width="2" height="2" fill="#C2410C" />
<rect x="28" y="46" width="2" height="2" fill="#C2410C" />
<rect x="30" y="46" width="2" height="2" fill="#C2410C" />
<rect x="32" y="46" width="2" height="2" fill="#C2410C" />
<rect x="34" y="46" width="2" height="2" fill="#C2410C" />
<rect x="36" y="46" width="2" height="2" fill="#C2410C" />
<rect x="38" y="46" width="2" height="2" fill="#C2410C" />
<rect x="40" y="46" width="2" height="2" fill="#C2410C" />
<rect x="42" y="46" width="2" height="2" fill="#C2410C" />
<rect x="16" y="48" width="2" height="2" fill="#EA580C" />
<rect x="18" y="48" width="2" height="2" fill="#EA580C" />
<rect x="20" y="48" width="2" height="2" fill="#EA580C" />
<rect x="22" y="48" width="2" height="2" fill="#EA580C" />
<rect x="24" y="48" width="2" height="2" fill="#EA580C" />
<rect x="26" y="48" width="2" height="2" fill="#EA580C" />
<rect x="28" y="48" width="2" height="2" fill="#EA580C" />
<rect x="30" y="48" width="2" height="2" fill="#EA580C" />
<rect x="32" y="48" width="2" height="2" fill="#EA580C" />
<rect x="34" y="48" width="2" height="2" fill="#EA580C" />
<rect x="36" y="48" width="2" height="2" fill="#EA580C" />
<rect x="38" y="48" width="2" height="2" fill="#EA580C" />
<rect x="40" y="48" width="2" height="2" fill="#EA580C" />
<rect x="42" y="48" width="2" height="2" fill="#EA580C" />
<rect x="44" y="48" width="2" height="2" fill="#EA580C" />
<rect x="46" y="48" width="2" height="2" fill="#EA580C" />
<rect x="16" y="50" width="2" height="2" fill="#EA580C" />
<rect x="18" y="50" width="2" height="2" fill="#EA580C" />
<rect x="20" y="50" width="2" height="2" fill="#EA580C" />
<rect x="22" y="50" width="2" height="2" fill="#EA580C" />
<rect x="24" y="50" width="2" height="2" fill="#EA580C" />
<rect x="26" y="50" width="2" height="2" fill="#EA580C" />
<rect x="28" y="50" width="2" height="2" fill="#EA580C" />
<rect x="30" y="50" width="2" height="2" fill="#EA580C" />
<rect x="32" y="50" width="2" height="2" fill="#EA580C" />
<rect x="34" y="50" width="2" height="2" fill="#EA580C" />
<rect x="36" y="50" width="2" height="2" fill="#EA580C" />
<rect x="38" y="50" width="2" height="2" fill="#EA580C" />
<rect x="40" y="50" width="2" height="2" fill="#EA580C" />
<rect x="42" y="50" width="2" height="2" fill="#EA580C" />
<rect x="44" y="50" width="2" height="2" fill="#EA580C" />
<rect x="46" y="50" width="2" height="2" fill="#EA580C" />
<rect x="16" y="52" width="2" height="2" fill="#EA580C" />
<rect x="18" y="52" width="2" height="2" fill="#EA580C" />
<rect x="20" y="52" width="2" height="2" fill="#EA580C" />
<rect x="22" y="52" width="2" height="2" fill="#EA580C" />
<rect x="24" y="52" width="2" height="2" fill="#EA580C" />
<rect x="26" y="52" width="2" height="2" fill="#EA580C" />
<rect x="28" y="52" width="2" height="2" fill="#EA580C" />
<rect x="30" y="52" width="2" height="2" fill="#EA580C" />
<rect x="32" y="52" width="2" height="2" fill="#EA580C" />
<rect x="34" y="52" width="2" height="2" fill="#EA580C" />
<rect x="36" y="52" width="2" height="2" fill="#EA580C" />
<rect x="38" y="52" width="2" height="2" fill="#EA580C" />
<rect x="40" y="52" width="2" height="2" fill="#EA580C" />
<rect x="42" y="52" width="2" height="2" fill="#EA580C" />
<rect x="44" y="52" width="2" height="2" fill="#EA580C" />
<rect x="46" y="52" width="2" height="2" fill="#EA580C" />
<rect x="16" y="54" width="2" height="2" fill="#EA580C" />
<rect x="18" y="54" width="2" height="2" fill="#EA580C" />
<rect x="20" y="54" width="2" height="2" fill="#EA580C" />
<rect x="22" y="54" width="2" height="2" fill="#EA580C" />
<rect x="24" y="54" width="2" height="2" fill="#EA580C" />
<rect x="26" y="54" width="2" height="2" fill="#EA580C" />
<rect x="28" y="54" width="2" height="2" fill="#EA580C" />
<rect x="30" y="54" width="2" height="2" fill="#EA580C" />
<rect x="32" y="54" width="2" height="2" fill="#EA580C" />
<rect x="34" y="54" width="2" height="2" fill="#EA580C" />
<rect x="36" y="54" width="2" height="2" fill="#EA580C" />
<rect x="38" y="54" width="2" height="2" fill="#EA580C" />
<rect x="40" y="54" width="2" height="2" fill="#EA580C" />
<rect x="42" y="54" width="2" height="2" fill="#EA580C" />
<rect x="44" y="54" width="2" height="2" fill="#EA580C" />
<rect x="46" y="54" width="2" height="2" fill="#EA580C" />
<rect x="16" y="56" width="2" height="2" fill="#EA580C" />
<rect x="18" y="56" width="2" height="2" fill="#EA580C" />
<rect x="20" y="56" width="2" height="2" fill="#EA580C" />
<rect x="22" y="56" width="2" height="2" fill="#EA580C" />
<rect x="24" y="56" width="2" height="2" fill="#EA580C" />
<rect x="26" y="56" width="2" height="2" fill="#EA580C" />
<rect x="28" y="56" width="2" height="2" fill="#EA580C" />
<rect x="30" y="56" width="2" height="2" fill="#EA580C" />
<rect x="32" y="56" width="2" height="2" fill="#EA580C" />
<rect x="34" y="56" width="2" height="2" fill="#EA580C" />
<rect x="36" y="56" width="2" height="2" fill="#EA580C" />
<rect x="38" y="56" width="2" height="2" fill="#EA580C" />
<rect x="40" y="56" width="2" height="2" fill="#EA580C" />
<rect x="42" y="56" width="2" height="2" fill="#EA580C" />
<rect x="44" y="56" width="2" height="2" fill="#EA580C" />
<rect x="46" y="56" width="2" height="2" fill="#EA580C" />
<rect x="16" y="58" width="2" height="2" fill="#EA580C" />
<rect x="18" y="58" width="2" height="2" fill="#EA580C" />
<rect x="20" y="58" width="2" height="2" fill="#EA580C" />
<rect x="22" y="58" width="2" height="2" fill="#EA580C" />
<rect x="24" y="58" width="2" height="2" fill="#EA580C" />
<rect x="26" y="58" width="2" height="2" fill="#EA580C" />
<rect x="28" y="58" width="2" height="2" fill="#EA580C" />
<rect x="30" y="58" width="2" height="2" fill="#EA580C" />
<rect x="32" y="58" width="2" height="2" fill="#EA580C" />
<rect x="34" y="58" width="2" height="2" fill="#EA580C" />
<rect x="36" y="58" width="2" height="2" fill="#EA580C" />
<rect x="38" y="58" width="2" height="2" fill="#EA580C" />
<rect x="40" y="58" width="2" height="2" fill="#EA580C" />
<rect x="42" y="58" width="2" height="2" fill="#EA580C" />
<rect x="44" y="58" width="2" height="2" fill="#EA580C" />
<rect x="46" y="58" width="2" height="2" fill="#EA580C" />
</svg>